<svg xmlns="http://www.w3.org/2000/svg" width="128" height="128" viewBox="0 0 128 128" fill="none">
  <!-- Brand panel -->
  <rect width="128" height="128" fill="#00A3FF"/>

  <!-- Scalloped seal (white): center + 8 lobes for an even “badge” silhouette -->
  <g fill="#fff">
    <circle cx="64" cy="64" r="34"/>
    <circle cx="64" cy="28" r="18"/>
    <circle cx="92" cy="38" r="18"/>
    <circle cx="100" cy="64" r="18"/>
    <circle cx="92" cy="90" r="18"/>
    <circle cx="64" cy="100" r="18"/>
    <circle cx="36" cy="90" r="18"/>
    <circle cx="28" cy="64" r="18"/>
    <circle cx="36" cy="38" r="18"/>
  </g>

  <!-- Back banknote (depth: darker + slight offset + rotation) -->
  <g transform="translate(64 64) rotate(6) translate(-64 -64)">
    <rect x="36" y="50" width="56" height="34" rx="8" fill="#0090E0"/>
    <!-- inner “frame” -->
    <rect x="42" y="56" width="44" height="22" rx="4" fill="#fff"/>
    <!-- portrait medallion -->
    <circle cx="64" cy="67" r="6" fill="#0090E0"/>
    <circle cx="64" cy="67" r="1.6" fill="#fff"/>
  </g>

  <!-- Front banknote -->
  <g transform="translate(64 64) rotate(-3) translate(-64 -64)">
    <rect x="34" y="42" width="60" height="36" rx="8" fill="#00A3FF"/>
    <rect x="40" y="48" width="48" height="24" rx="4" fill="#fff"/>
    <circle cx="64" cy="60" r="7" fill="#00A3FF"/>
    <circle cx="64" cy="60" r="2" fill="#fff"/>
  </g>
</svg>
